<mxfile host="app.diagrams.net" modified="2024-07-09T12:08:54.965Z" agent="Mozilla/5.0 (Windows NT 10.0; Win64; x64) AppleWebKit/537.36 (KHTML, like Gecko) Chrome/126.0.0.0 Safari/537.36" etag="-NFsARb11gCSVX0LsL2E" version="24.6.4" type="device">
  <diagram id="R2lEEEUBdFMjLlhIrx00" name="Page-1">
    <mxGraphModel dx="1234" dy="724" grid="1" gridSize="10" guides="1" tooltips="1" connect="1" arrows="1" fold="1" page="1" pageScale="1" pageWidth="850" pageHeight="1100" math="0" shadow="0" extFonts="Permanent Marker^https://fonts.googleapis.com/css?family=Permanent+Marker">
      <root>
        <mxCell id="0" />
        <mxCell id="1" parent="0" />
        <mxCell id="Zp_uvEpWVn_j4Id3Xdx3-15" value="" style="group" vertex="1" connectable="0" parent="1">
          <mxGeometry x="70" y="370" width="250" height="130" as="geometry" />
        </mxCell>
        <mxCell id="Zp_uvEpWVn_j4Id3Xdx3-3" value="Faculty" style="whiteSpace=wrap;html=1;align=center;" vertex="1" parent="Zp_uvEpWVn_j4Id3Xdx3-15">
          <mxGeometry x="150" width="100" height="40" as="geometry" />
        </mxCell>
        <mxCell id="Zp_uvEpWVn_j4Id3Xdx3-10" value="faculty code" style="ellipse;whiteSpace=wrap;html=1;align=center;fontStyle=4;" vertex="1" parent="Zp_uvEpWVn_j4Id3Xdx3-15">
          <mxGeometry y="40" width="100" height="40" as="geometry" />
        </mxCell>
        <mxCell id="Zp_uvEpWVn_j4Id3Xdx3-13" value="name" style="ellipse;whiteSpace=wrap;html=1;align=center;" vertex="1" parent="Zp_uvEpWVn_j4Id3Xdx3-15">
          <mxGeometry x="70" y="90" width="100" height="40" as="geometry" />
        </mxCell>
        <mxCell id="Zp_uvEpWVn_j4Id3Xdx3-12" style="edgeStyle=none;rounded=0;orthogonalLoop=1;jettySize=auto;html=1;entryX=1;entryY=0.5;entryDx=0;entryDy=0;endArrow=none;endFill=0;" edge="1" parent="Zp_uvEpWVn_j4Id3Xdx3-15" source="Zp_uvEpWVn_j4Id3Xdx3-3" target="Zp_uvEpWVn_j4Id3Xdx3-10">
          <mxGeometry relative="1" as="geometry" />
        </mxCell>
        <mxCell id="Zp_uvEpWVn_j4Id3Xdx3-14" style="edgeStyle=none;rounded=0;orthogonalLoop=1;jettySize=auto;html=1;entryX=0.5;entryY=0;entryDx=0;entryDy=0;endArrow=none;endFill=0;" edge="1" parent="Zp_uvEpWVn_j4Id3Xdx3-15" source="Zp_uvEpWVn_j4Id3Xdx3-3" target="Zp_uvEpWVn_j4Id3Xdx3-13">
          <mxGeometry relative="1" as="geometry" />
        </mxCell>
        <mxCell id="Zp_uvEpWVn_j4Id3Xdx3-24" value="" style="group" vertex="1" connectable="0" parent="1">
          <mxGeometry x="485" y="370" width="321.40999999999997" height="190" as="geometry" />
        </mxCell>
        <mxCell id="Zp_uvEpWVn_j4Id3Xdx3-5" value="Class" style="shape=ext;margin=3;double=1;whiteSpace=wrap;html=1;align=center;" vertex="1" parent="Zp_uvEpWVn_j4Id3Xdx3-24">
          <mxGeometry x="54.225352112676056" width="77.46478873239437" height="40" as="geometry" />
        </mxCell>
        <mxCell id="Zp_uvEpWVn_j4Id3Xdx3-16" value="class code" style="ellipse;whiteSpace=wrap;html=1;align=center;fontStyle=4;" vertex="1" parent="Zp_uvEpWVn_j4Id3Xdx3-24">
          <mxGeometry y="85" width="77.46478873239437" height="40" as="geometry" />
        </mxCell>
        <mxCell id="Zp_uvEpWVn_j4Id3Xdx3-18" value="name" style="ellipse;whiteSpace=wrap;html=1;align=center;" vertex="1" parent="Zp_uvEpWVn_j4Id3Xdx3-24">
          <mxGeometry x="46.478873239436616" y="150" width="77.46478873239437" height="40" as="geometry" />
        </mxCell>
        <mxCell id="Zp_uvEpWVn_j4Id3Xdx3-20" value="wholesale number" style="ellipse;whiteSpace=wrap;html=1;align=center;" vertex="1" parent="Zp_uvEpWVn_j4Id3Xdx3-24">
          <mxGeometry x="123.94366197183098" y="120" width="77.46478873239437" height="40" as="geometry" />
        </mxCell>
        <mxCell id="Zp_uvEpWVn_j4Id3Xdx3-17" style="edgeStyle=none;rounded=0;orthogonalLoop=1;jettySize=auto;html=1;entryX=0.5;entryY=0;entryDx=0;entryDy=0;endArrow=none;endFill=0;" edge="1" parent="Zp_uvEpWVn_j4Id3Xdx3-24" source="Zp_uvEpWVn_j4Id3Xdx3-5" target="Zp_uvEpWVn_j4Id3Xdx3-16">
          <mxGeometry relative="1" as="geometry" />
        </mxCell>
        <mxCell id="Zp_uvEpWVn_j4Id3Xdx3-19" style="edgeStyle=none;rounded=0;orthogonalLoop=1;jettySize=auto;html=1;entryX=0.5;entryY=0;entryDx=0;entryDy=0;endArrow=none;endFill=0;" edge="1" parent="Zp_uvEpWVn_j4Id3Xdx3-24" source="Zp_uvEpWVn_j4Id3Xdx3-5" target="Zp_uvEpWVn_j4Id3Xdx3-18">
          <mxGeometry relative="1" as="geometry" />
        </mxCell>
        <mxCell id="Zp_uvEpWVn_j4Id3Xdx3-21" style="edgeStyle=none;rounded=0;orthogonalLoop=1;jettySize=auto;html=1;entryX=0.5;entryY=0;entryDx=0;entryDy=0;endArrow=none;endFill=0;" edge="1" parent="Zp_uvEpWVn_j4Id3Xdx3-24" source="Zp_uvEpWVn_j4Id3Xdx3-5" target="Zp_uvEpWVn_j4Id3Xdx3-20">
          <mxGeometry relative="1" as="geometry" />
        </mxCell>
        <mxCell id="Zp_uvEpWVn_j4Id3Xdx3-87" value="Has" style="shape=rhombus;double=1;perimeter=rhombusPerimeter;whiteSpace=wrap;html=1;align=center;" vertex="1" parent="Zp_uvEpWVn_j4Id3Xdx3-24">
          <mxGeometry x="201.40999999999997" y="-10" width="120" height="60" as="geometry" />
        </mxCell>
        <mxCell id="Zp_uvEpWVn_j4Id3Xdx3-88" style="edgeStyle=none;rounded=0;orthogonalLoop=1;jettySize=auto;html=1;entryX=0;entryY=0.5;entryDx=0;entryDy=0;endArrow=none;endFill=0;" edge="1" parent="Zp_uvEpWVn_j4Id3Xdx3-24" source="Zp_uvEpWVn_j4Id3Xdx3-5" target="Zp_uvEpWVn_j4Id3Xdx3-87">
          <mxGeometry relative="1" as="geometry" />
        </mxCell>
        <mxCell id="Zp_uvEpWVn_j4Id3Xdx3-61" value="" style="group" vertex="1" connectable="0" parent="1">
          <mxGeometry x="360" y="180" width="230" height="160" as="geometry" />
        </mxCell>
        <mxCell id="Zp_uvEpWVn_j4Id3Xdx3-25" value="Library card" style="shape=ext;margin=3;double=1;whiteSpace=wrap;html=1;align=center;" vertex="1" parent="Zp_uvEpWVn_j4Id3Xdx3-61">
          <mxGeometry x="130" y="70" width="100" height="40" as="geometry" />
        </mxCell>
        <mxCell id="Zp_uvEpWVn_j4Id3Xdx3-54" value="issue date" style="ellipse;whiteSpace=wrap;html=1;align=center;" vertex="1" parent="Zp_uvEpWVn_j4Id3Xdx3-61">
          <mxGeometry y="60" width="100" height="40" as="geometry" />
        </mxCell>
        <mxCell id="Zp_uvEpWVn_j4Id3Xdx3-55" value="card number" style="ellipse;whiteSpace=wrap;html=1;align=center;fontStyle=4;" vertex="1" parent="Zp_uvEpWVn_j4Id3Xdx3-61">
          <mxGeometry x="60" width="100" height="40" as="geometry" />
        </mxCell>
        <mxCell id="Zp_uvEpWVn_j4Id3Xdx3-56" value="expiration date" style="ellipse;whiteSpace=wrap;html=1;align=center;" vertex="1" parent="Zp_uvEpWVn_j4Id3Xdx3-61">
          <mxGeometry y="120" width="100" height="40" as="geometry" />
        </mxCell>
        <mxCell id="Zp_uvEpWVn_j4Id3Xdx3-58" style="edgeStyle=none;rounded=0;orthogonalLoop=1;jettySize=auto;html=1;entryX=1;entryY=0.5;entryDx=0;entryDy=0;endArrow=none;endFill=0;" edge="1" parent="Zp_uvEpWVn_j4Id3Xdx3-61" source="Zp_uvEpWVn_j4Id3Xdx3-25" target="Zp_uvEpWVn_j4Id3Xdx3-54">
          <mxGeometry relative="1" as="geometry" />
        </mxCell>
        <mxCell id="Zp_uvEpWVn_j4Id3Xdx3-57" style="edgeStyle=none;rounded=0;orthogonalLoop=1;jettySize=auto;html=1;entryX=0.5;entryY=1;entryDx=0;entryDy=0;endArrow=none;endFill=0;" edge="1" parent="Zp_uvEpWVn_j4Id3Xdx3-61" source="Zp_uvEpWVn_j4Id3Xdx3-25" target="Zp_uvEpWVn_j4Id3Xdx3-55">
          <mxGeometry relative="1" as="geometry" />
        </mxCell>
        <mxCell id="Zp_uvEpWVn_j4Id3Xdx3-59" style="edgeStyle=none;rounded=0;orthogonalLoop=1;jettySize=auto;html=1;entryX=1;entryY=0.5;entryDx=0;entryDy=0;endArrow=none;endFill=0;" edge="1" parent="Zp_uvEpWVn_j4Id3Xdx3-61" source="Zp_uvEpWVn_j4Id3Xdx3-25" target="Zp_uvEpWVn_j4Id3Xdx3-56">
          <mxGeometry relative="1" as="geometry" />
        </mxCell>
        <mxCell id="Zp_uvEpWVn_j4Id3Xdx3-63" value="Has" style="shape=rhombus;double=1;perimeter=rhombusPerimeter;whiteSpace=wrap;html=1;align=center;" vertex="1" parent="1">
          <mxGeometry x="365" y="360" width="120" height="60" as="geometry" />
        </mxCell>
        <mxCell id="Zp_uvEpWVn_j4Id3Xdx3-66" style="edgeStyle=none;rounded=0;orthogonalLoop=1;jettySize=auto;html=1;entryX=0;entryY=0.5;entryDx=0;entryDy=0;endArrow=none;endFill=0;" edge="1" parent="1" source="Zp_uvEpWVn_j4Id3Xdx3-3" target="Zp_uvEpWVn_j4Id3Xdx3-63">
          <mxGeometry relative="1" as="geometry" />
        </mxCell>
        <mxCell id="Zp_uvEpWVn_j4Id3Xdx3-67" style="edgeStyle=none;rounded=0;orthogonalLoop=1;jettySize=auto;html=1;entryX=1;entryY=0.5;entryDx=0;entryDy=0;endArrow=none;endFill=0;startArrow=ERoneToMany;startFill=0;" edge="1" parent="1" source="Zp_uvEpWVn_j4Id3Xdx3-5" target="Zp_uvEpWVn_j4Id3Xdx3-63">
          <mxGeometry relative="1" as="geometry" />
        </mxCell>
        <mxCell id="Zp_uvEpWVn_j4Id3Xdx3-86" value="" style="group" vertex="1" connectable="0" parent="1">
          <mxGeometry x="770" y="350" width="450" height="210" as="geometry" />
        </mxCell>
        <mxCell id="Zp_uvEpWVn_j4Id3Xdx3-7" value="Student" style="whiteSpace=wrap;html=1;align=center;" vertex="1" parent="Zp_uvEpWVn_j4Id3Xdx3-86">
          <mxGeometry x="100" y="20" width="100" height="40" as="geometry" />
        </mxCell>
        <mxCell id="Zp_uvEpWVn_j4Id3Xdx3-22" value="studentID" style="ellipse;whiteSpace=wrap;html=1;align=center;fontStyle=4;" vertex="1" parent="Zp_uvEpWVn_j4Id3Xdx3-86">
          <mxGeometry x="250" y="110" width="100" height="40" as="geometry" />
        </mxCell>
        <mxCell id="Zp_uvEpWVn_j4Id3Xdx3-26" value="full name" style="ellipse;whiteSpace=wrap;html=1;align=center;" vertex="1" parent="Zp_uvEpWVn_j4Id3Xdx3-86">
          <mxGeometry x="100" y="130" width="100" height="40" as="geometry" />
        </mxCell>
        <mxCell id="Zp_uvEpWVn_j4Id3Xdx3-31" value="date of birth" style="ellipse;whiteSpace=wrap;html=1;align=center;" vertex="1" parent="Zp_uvEpWVn_j4Id3Xdx3-86">
          <mxGeometry y="160" width="100" height="40" as="geometry" />
        </mxCell>
        <mxCell id="Zp_uvEpWVn_j4Id3Xdx3-35" value="gender" style="ellipse;whiteSpace=wrap;html=1;align=center;" vertex="1" parent="Zp_uvEpWVn_j4Id3Xdx3-86">
          <mxGeometry x="260" y="60" width="100" height="40" as="geometry" />
        </mxCell>
        <mxCell id="Zp_uvEpWVn_j4Id3Xdx3-37" value="address" style="ellipse;whiteSpace=wrap;html=1;align=center;" vertex="1" parent="Zp_uvEpWVn_j4Id3Xdx3-86">
          <mxGeometry x="185" y="170" width="100" height="40" as="geometry" />
        </mxCell>
        <mxCell id="Zp_uvEpWVn_j4Id3Xdx3-39" value="graduation point" style="ellipse;whiteSpace=wrap;html=1;align=center;" vertex="1" parent="Zp_uvEpWVn_j4Id3Xdx3-86">
          <mxGeometry x="350" width="100" height="40" as="geometry" />
        </mxCell>
        <mxCell id="Zp_uvEpWVn_j4Id3Xdx3-23" style="edgeStyle=none;rounded=0;orthogonalLoop=1;jettySize=auto;html=1;entryX=0;entryY=0.5;entryDx=0;entryDy=0;endArrow=none;endFill=0;" edge="1" parent="Zp_uvEpWVn_j4Id3Xdx3-86" source="Zp_uvEpWVn_j4Id3Xdx3-7" target="Zp_uvEpWVn_j4Id3Xdx3-22">
          <mxGeometry relative="1" as="geometry" />
        </mxCell>
        <mxCell id="Zp_uvEpWVn_j4Id3Xdx3-27" style="edgeStyle=none;rounded=0;orthogonalLoop=1;jettySize=auto;html=1;entryX=0.5;entryY=0;entryDx=0;entryDy=0;endArrow=none;endFill=0;" edge="1" parent="Zp_uvEpWVn_j4Id3Xdx3-86" source="Zp_uvEpWVn_j4Id3Xdx3-7" target="Zp_uvEpWVn_j4Id3Xdx3-26">
          <mxGeometry relative="1" as="geometry" />
        </mxCell>
        <mxCell id="Zp_uvEpWVn_j4Id3Xdx3-33" style="edgeStyle=none;rounded=0;orthogonalLoop=1;jettySize=auto;html=1;entryX=0.5;entryY=0;entryDx=0;entryDy=0;endArrow=none;endFill=0;" edge="1" parent="Zp_uvEpWVn_j4Id3Xdx3-86" source="Zp_uvEpWVn_j4Id3Xdx3-7" target="Zp_uvEpWVn_j4Id3Xdx3-31">
          <mxGeometry relative="1" as="geometry" />
        </mxCell>
        <mxCell id="Zp_uvEpWVn_j4Id3Xdx3-36" style="edgeStyle=none;rounded=0;orthogonalLoop=1;jettySize=auto;html=1;endArrow=none;endFill=0;" edge="1" parent="Zp_uvEpWVn_j4Id3Xdx3-86" source="Zp_uvEpWVn_j4Id3Xdx3-7" target="Zp_uvEpWVn_j4Id3Xdx3-35">
          <mxGeometry relative="1" as="geometry" />
        </mxCell>
        <mxCell id="Zp_uvEpWVn_j4Id3Xdx3-38" style="edgeStyle=none;rounded=0;orthogonalLoop=1;jettySize=auto;html=1;entryX=0.5;entryY=0;entryDx=0;entryDy=0;endArrow=none;endFill=0;" edge="1" parent="Zp_uvEpWVn_j4Id3Xdx3-86" source="Zp_uvEpWVn_j4Id3Xdx3-7" target="Zp_uvEpWVn_j4Id3Xdx3-37">
          <mxGeometry relative="1" as="geometry" />
        </mxCell>
        <mxCell id="Zp_uvEpWVn_j4Id3Xdx3-40" style="edgeStyle=none;rounded=0;orthogonalLoop=1;jettySize=auto;html=1;entryX=0;entryY=0.5;entryDx=0;entryDy=0;endArrow=none;endFill=0;" edge="1" parent="Zp_uvEpWVn_j4Id3Xdx3-86" source="Zp_uvEpWVn_j4Id3Xdx3-7" target="Zp_uvEpWVn_j4Id3Xdx3-39">
          <mxGeometry relative="1" as="geometry" />
        </mxCell>
        <mxCell id="Zp_uvEpWVn_j4Id3Xdx3-89" style="edgeStyle=none;rounded=0;orthogonalLoop=1;jettySize=auto;html=1;endArrow=ERoneToMany;endFill=0;entryX=0;entryY=0.5;entryDx=0;entryDy=0;" edge="1" parent="1" source="Zp_uvEpWVn_j4Id3Xdx3-87" target="Zp_uvEpWVn_j4Id3Xdx3-7">
          <mxGeometry relative="1" as="geometry">
            <mxPoint x="850" y="390" as="targetPoint" />
          </mxGeometry>
        </mxCell>
        <mxCell id="Zp_uvEpWVn_j4Id3Xdx3-90" value="" style="group" vertex="1" connectable="0" parent="1">
          <mxGeometry x="740" y="70" width="355" height="140" as="geometry" />
        </mxCell>
        <mxCell id="Zp_uvEpWVn_j4Id3Xdx3-42" value="subject code" style="ellipse;whiteSpace=wrap;html=1;align=center;fontStyle=4;" vertex="1" parent="Zp_uvEpWVn_j4Id3Xdx3-90">
          <mxGeometry x="255" y="10" width="100" height="40" as="geometry" />
        </mxCell>
        <mxCell id="Zp_uvEpWVn_j4Id3Xdx3-8" value="Subject" style="whiteSpace=wrap;html=1;align=center;" vertex="1" parent="Zp_uvEpWVn_j4Id3Xdx3-90">
          <mxGeometry x="130" y="80" width="100" height="40" as="geometry" />
        </mxCell>
        <mxCell id="Zp_uvEpWVn_j4Id3Xdx3-47" value="name" style="ellipse;whiteSpace=wrap;html=1;align=center;" vertex="1" parent="Zp_uvEpWVn_j4Id3Xdx3-90">
          <mxGeometry x="110" width="100" height="40" as="geometry" />
        </mxCell>
        <mxCell id="Zp_uvEpWVn_j4Id3Xdx3-49" value="number of credits" style="ellipse;whiteSpace=wrap;html=1;align=center;" vertex="1" parent="Zp_uvEpWVn_j4Id3Xdx3-90">
          <mxGeometry x="10" y="40" width="100" height="40" as="geometry" />
        </mxCell>
        <mxCell id="Zp_uvEpWVn_j4Id3Xdx3-51" value="exam scores" style="ellipse;whiteSpace=wrap;html=1;align=center;" vertex="1" parent="Zp_uvEpWVn_j4Id3Xdx3-90">
          <mxGeometry y="100" width="100" height="40" as="geometry" />
        </mxCell>
        <mxCell id="Zp_uvEpWVn_j4Id3Xdx3-48" style="edgeStyle=none;rounded=0;orthogonalLoop=1;jettySize=auto;html=1;entryX=0.567;entryY=1.05;entryDx=0;entryDy=0;entryPerimeter=0;endArrow=none;endFill=0;" edge="1" parent="Zp_uvEpWVn_j4Id3Xdx3-90" source="Zp_uvEpWVn_j4Id3Xdx3-8" target="Zp_uvEpWVn_j4Id3Xdx3-47">
          <mxGeometry relative="1" as="geometry" />
        </mxCell>
        <mxCell id="Zp_uvEpWVn_j4Id3Xdx3-50" style="edgeStyle=none;rounded=0;orthogonalLoop=1;jettySize=auto;html=1;entryX=1;entryY=0.5;entryDx=0;entryDy=0;endArrow=none;endFill=0;" edge="1" parent="Zp_uvEpWVn_j4Id3Xdx3-90" source="Zp_uvEpWVn_j4Id3Xdx3-8" target="Zp_uvEpWVn_j4Id3Xdx3-49">
          <mxGeometry relative="1" as="geometry" />
        </mxCell>
        <mxCell id="Zp_uvEpWVn_j4Id3Xdx3-52" style="edgeStyle=none;rounded=0;orthogonalLoop=1;jettySize=auto;html=1;entryX=1;entryY=0.5;entryDx=0;entryDy=0;endArrow=none;endFill=0;" edge="1" parent="Zp_uvEpWVn_j4Id3Xdx3-90" source="Zp_uvEpWVn_j4Id3Xdx3-8" target="Zp_uvEpWVn_j4Id3Xdx3-51">
          <mxGeometry relative="1" as="geometry" />
        </mxCell>
        <mxCell id="Zp_uvEpWVn_j4Id3Xdx3-43" style="edgeStyle=none;rounded=0;orthogonalLoop=1;jettySize=auto;html=1;entryX=0.5;entryY=1;entryDx=0;entryDy=0;endArrow=none;endFill=0;" edge="1" parent="Zp_uvEpWVn_j4Id3Xdx3-90" source="Zp_uvEpWVn_j4Id3Xdx3-8" target="Zp_uvEpWVn_j4Id3Xdx3-42">
          <mxGeometry relative="1" as="geometry" />
        </mxCell>
        <mxCell id="Zp_uvEpWVn_j4Id3Xdx3-92" style="edgeStyle=none;rounded=0;orthogonalLoop=1;jettySize=auto;html=1;entryX=0.5;entryY=1;entryDx=0;entryDy=0;endArrow=ERoneToMany;endFill=0;" edge="1" parent="1" source="Zp_uvEpWVn_j4Id3Xdx3-91" target="Zp_uvEpWVn_j4Id3Xdx3-8">
          <mxGeometry relative="1" as="geometry" />
        </mxCell>
        <mxCell id="Zp_uvEpWVn_j4Id3Xdx3-93" style="edgeStyle=none;rounded=0;orthogonalLoop=1;jettySize=auto;html=1;entryX=0.5;entryY=0;entryDx=0;entryDy=0;endArrow=ERoneToMany;endFill=0;" edge="1" parent="1" source="Zp_uvEpWVn_j4Id3Xdx3-91" target="Zp_uvEpWVn_j4Id3Xdx3-7">
          <mxGeometry relative="1" as="geometry" />
        </mxCell>
        <mxCell id="Zp_uvEpWVn_j4Id3Xdx3-91" value="Study" style="shape=rhombus;perimeter=rhombusPerimeter;whiteSpace=wrap;html=1;align=center;" vertex="1" parent="1">
          <mxGeometry x="860" y="240" width="120" height="60" as="geometry" />
        </mxCell>
        <mxCell id="Zp_uvEpWVn_j4Id3Xdx3-96" style="edgeStyle=none;rounded=0;orthogonalLoop=1;jettySize=auto;html=1;entryX=1;entryY=0.5;entryDx=0;entryDy=0;endArrow=ERmandOne;endFill=0;" edge="1" parent="1" source="Zp_uvEpWVn_j4Id3Xdx3-94" target="Zp_uvEpWVn_j4Id3Xdx3-25">
          <mxGeometry relative="1" as="geometry" />
        </mxCell>
        <mxCell id="Zp_uvEpWVn_j4Id3Xdx3-94" value="Has" style="shape=rhombus;double=1;perimeter=rhombusPerimeter;whiteSpace=wrap;html=1;align=center;" vertex="1" parent="1">
          <mxGeometry x="650" y="240" width="120" height="60" as="geometry" />
        </mxCell>
        <mxCell id="Zp_uvEpWVn_j4Id3Xdx3-95" style="edgeStyle=none;rounded=0;orthogonalLoop=1;jettySize=auto;html=1;endArrow=none;endFill=0;startArrow=ERmandOne;startFill=0;" edge="1" parent="1" source="Zp_uvEpWVn_j4Id3Xdx3-7">
          <mxGeometry relative="1" as="geometry">
            <mxPoint x="770" y="270" as="targetPoint" />
          </mxGeometry>
        </mxCell>
      </root>
    </mxGraphModel>
  </diagram>
</mxfile>
